<svg id="Layer_1" data-name="Layer 1" xmlns="http://www.w3.org/2000/svg" xmlns:xlink="http://www.w3.org/1999/xlink" width="2024" height="424" viewBox="0 0 535 112.5">
  <defs>
    <linearGradient id="linear-gradient" x1="22.22851" y1="86.30801" x2="76.81396" y2="31.72256" gradientTransform="matrix(1, 0, 0, -1, 0, 114)" gradientUnits="userSpaceOnUse">
      <stop offset="0.17208" stop-color="#07c3f2"/>
      <stop offset="1" stop-color="#6b57ff"/>
    </linearGradient>
  </defs>
  <g id="Layer_1-2" data-name="Layer 1">
    <g>
      <g>
        <g>
          <path d="M100.84778,66.14852v-.09535c0-9.15295,6.63395-17.25713,16.51373-17.25713a17.22075,17.22075,0,0,1,12.27855,4.43277l-2.40016,2.8603a13.908,13.908,0,0,0-10.01933-3.81373c-7.29307,0-12.51485,6.24567-12.51485,13.68245v.09534c0,7.96048,5.03385,13.87176,13.03163,13.87176a15.37317,15.37317,0,0,0,9.50255-3.337V68.293H117.22057V64.909H130.816V78.20869a19.81138,19.81138,0,0,1-13.21955,5.10157C107.24683,83.31031,100.84778,75.68284,100.84778,66.14852Z" fill="#fff"/>
          <path d="M136.23119,58.09132h3.623v6.43636c1.78665-4.09976,5.31574-7.0554,9.92675-6.86471v3.956h-.28327c-5.31573,0-9.64349,3.86209-9.64349,11.29888V82.7382h-3.62305Z" fill="#fff"/>
          <path d="M149.92331,75.5875v-.09534c0-5.19689,4.23379-7.96186,10.39793-7.96186a25.52863,25.52863,0,0,1,7.47962,1.04879V67.721c0-4.43277-2.68206-6.721-7.24471-6.721a16.76544,16.76544,0,0,0-7.387,1.81152l-1.08193-3.004a19.87284,19.87284,0,0,1,8.84481-2.04919c3.43512,0,6.06881.90507,7.85684,2.71659,1.64709,1.6692,2.49274,4.05277,2.49274,7.19911V82.73825H167.8009V79.01986a10.613,10.613,0,0,1-8.79783,4.24208C154.48735,83.26194,149.92331,80.64069,149.92331,75.5875Zm17.92453-1.90686V71.29705a25.03881,25.03881,0,0,0-7.15074-1.04877c-4.564,0-7.10378,2.00222-7.10378,5.10017v.09534c0,3.09935,2.823,4.91087,6.11579,4.91087C164.17783,80.35466,167.84784,77.58971,167.84784,73.68064Z" fill="#fff"/>
          <path d="M175.23764,70.48594V70.3906c0-8.05581,5.78554-12.823,11.61945-12.823a10.94123,10.94123,0,0,1,9.31462,5.24389V47.938h3.623V82.7383h-3.623V77.7804c-1.97457,2.95565-4.84455,5.48154-9.31462,5.48154C181.02318,83.26194,175.23764,78.59012,175.23764,70.48594Zm21.07639-.047v-.09533c0-5.67361-4.28217-9.48736-8.79784-9.48736-4.705,0-8.56293,3.52771-8.56293,9.48736V70.439c0,5.81594,3.95191,9.53434,8.56293,9.53434,4.51569,0,8.79781-3.86214,8.79781-9.53434Z" fill="#fff"/>
          <path d="M205.86771,47.938h3.623V82.7383h-3.623Z" fill="#fff"/>
          <path d="M214.05479,70.48594V70.3906c0-7.10238,4.93851-12.823,11.66643-12.823,7.19773,0,11.33756,5.81594,11.33756,13.01368a9.732,9.732,0,0,1-.047,1.19248H217.72343c.51818,5.33922,4.2338,8.34185,8.56293,8.34185a10.00769,10.00769,0,0,0,7.66753-3.47934l2.25923,2.04919A12.492,12.492,0,0,1,226.1924,83.3103C219.51146,83.31031,214.05479,78.11341,214.05479,70.48594Zm19.33535-1.43014c-.37723-4.48114-2.917-8.39021-7.76288-8.39021-4.2338,0-7.43263,3.57606-7.90383,8.39021Z" fill="#fff"/>
          <path d="M253.766,49.3681h3.717V82.73825h-3.717Z" fill="#fff"/>
          <path d="M264.16388,58.09132h3.623v4.29045a9.19005,9.19005,0,0,1,8.32663-4.81415c5.88089,0,9.31463,4.00442,9.31463,9.86734V82.73825h-3.62167V68.34141c0-4.57648-2.44714-7.43677-6.72791-7.43677-4.18683,0-7.29168,3.098-7.29168,7.72279V82.73825h-3.623Z" fill="#fff"/>
          <path d="M292.06494,76.20654V61.333h-3.38675V58.09132h3.38675V50.65454h3.623v7.43678h7.71591V61.333H295.688V75.72982c0,3.004,1.64709,4.09977,4.09286,4.09977a7.52457,7.52457,0,0,0,3.52771-.85809v3.14631a9.01,9.01,0,0,1-4.37472,1.04879C295.02887,83.1666,292.06494,81.21275,292.06494,76.20654Z" fill="#fff"/>
          <path d="M305.24026,70.48594V70.3906c0-7.10238,4.93851-12.823,11.66645-12.823,7.19772,0,11.33755,5.81594,11.33755,13.01368a9.732,9.732,0,0,1-.047,1.19248H308.90891c.51815,5.33922,4.23379,8.34185,8.56292,8.34185a10.00772,10.00772,0,0,0,7.66754-3.47934l2.25922,2.04919a12.492,12.492,0,0,1-10.02072,4.62484C310.69693,83.31031,305.24026,78.11341,305.24026,70.48594Zm19.33533-1.43014c-.37723-4.48114-2.917-8.39021-7.76288-8.39021-4.23379,0-7.43261,3.57606-7.9038,8.39021Z" fill="#fff"/>
          <path d="M332.57614,47.938h3.623V82.7383h-3.623Z" fill="#fff"/>
          <path d="M342.59824,47.938h3.623V82.7383h-3.623Z" fill="#fff"/>
          <path d="M352.38406,48.65234h4.13984v4.05278h-4.13984Zm.2349,9.439h3.623V82.73825h-3.623Z" fill="#fff"/>
          <path d="M359.72412,77.30368l2.682-2.3366c2.02292,3.09935,4.09286,4.76716,7.528,4.76716,3.71561,0,6.44464-2.71659,6.44464-8.00883V49.3681h3.764V71.67843c0,3.90907-1.1289,6.86471-3.01089,8.77158a10.02539,10.02539,0,0,1-7.24472,2.765A11.25619,11.25619,0,0,1,359.72412,77.30368Z" fill="#fff"/>
          <path d="M398.35333,49.3681h12.32553c7.43262,0,12.32553,4.00442,12.32553,10.5831v.09535c0,7.19772-5.92785,10.9161-12.93768,10.9161H402.069v11.7756h-3.71564Zm11.85434,18.1622c5.45807,0,9.03275-2.95564,9.03275-7.34143v-.09534c0-4.76717-3.52771-7.24609-8.84345-7.24609h-8.328V67.5303Z" fill="#fff"/>
          <path d="M427.14838,47.938h3.623V82.7383h-3.623Z" fill="#fff"/>
          <path d="M436.46576,73.39461V58.09132h3.62167V72.48815c0,4.57648,2.44715,7.43678,6.72791,7.43678,4.13983,0,7.29169-3.098,7.29169-7.7228V58.09132h3.576V82.73825H454.107V78.4478a9.24464,9.24464,0,0,1-8.32666,4.81414C439.89951,83.26194,436.46576,79.25753,436.46576,73.39461Z" fill="#fff"/>
          <path d="M463.19092,87.02869l1.64569-2.86029a15.41158,15.41158,0,0,0,9.363,3.14631c5.3627,0,8.84481-3.004,8.84481-8.77157V75.63448c-2.11828,2.8603-5.08221,5.1969-9.5509,5.1969a11.31808,11.31808,0,0,1-11.433-11.202q-.00169-.16729.00152-.33457V69.1995a11.485,11.485,0,0,1,20.93405-6.674V58.09132h3.623V78.4478c0,3.81373-1.12891,6.721-3.10489,8.72322-2.16388,2.19289-5.4097,3.29-9.26764,3.29A18.89269,18.89269,0,0,1,463.19092,87.02869ZM483.1384,69.24648v-.09534c0-5.05319-4.32913-8.34185-8.93878-8.34185a8.09428,8.09428,0,0,0-8.41791,7.7572q-.011.26869-.00409.53767v.09533a8.28532,8.28532,0,0,0,8.17862,8.39067q.12167.00156.24338-.00045c4.60961,0,8.93875-3.38538,8.93875-8.34323Z" fill="#fff"/>
          <path d="M492.45575,48.65234h4.13983v4.05278h-4.13983Zm.23492,9.439h3.623V82.73825h-3.623Z" fill="#fff"/>
          <path d="M502.38391,58.09132h3.623v4.29045a9.19009,9.19009,0,0,1,8.32666-4.81415c5.88086,0,9.31463,4.00442,9.31463,9.86734V82.73825h-3.62164V68.34141c0-4.57648-2.44714-7.43677-6.7279-7.43677-4.1868,0-7.29169,3.098-7.29169,7.72279V82.73825h-3.623Z" fill="#fff"/>
        </g>
        <g>
          <path d="M100.98971,39.01579l1.53856-1.32226c1.16064,1.7539,2.34814,2.69921,4.31885,2.69921,2.13232,0,3.69776-1.53906,3.69776-4.53515V23.19841h2.15966V35.83122A6.81854,6.81854,0,0,1,110.977,40.798a5.79535,5.79535,0,0,1-4.15723,1.56543A6.47,6.47,0,0,1,100.98971,39.01579Z" fill="#fff"/>
          <path d="M116.59762,35.15642v-.05469c0-4.02149,2.83447-7.26074,6.69433-7.26074,4.12988,0,6.50537,3.29394,6.50537,7.36914a5.34115,5.34115,0,0,1-.02735.6748h-11.0669a4.874,4.874,0,0,0,4.9126,4.72461,5.77622,5.77622,0,0,0,4.39989-1.9707l1.2959,1.16015a7.20448,7.20448,0,0,1-5.74951,2.61817,6.9366,6.9366,0,0,1-6.97182-6.9012Q116.58922,35.33613,116.59762,35.15642Zm11.09423-.81055c-.21582-2.53711-1.67382-4.75-4.4541-4.75-2.4292,0-4.26465,2.02441-4.53467,4.75Z" fill="#fff"/>
          <path d="M133.69917,38.3947V29.9738h-1.94336v-1.835h1.94336V23.9279h2.07813v4.21094h4.42724v1.835H135.7773v8.15137a2.06521,2.06521,0,0,0,2.34863,2.32226,4.37579,4.37579,0,0,0,2.02441-.48633v1.78125a5.22766,5.22766,0,0,1-2.51025.59375C135.39986,42.3361,133.69917,41.22966,133.69917,38.3947Z" fill="#fff"/>
          <path d="M143.65964,23.19841h8.04394a6.93961,6.93961,0,0,1,4.93946,1.67383,4.19445,4.19445,0,0,1,1.21484,3.02246v.05468a4.56226,4.56226,0,0,1-2.99609,4.373c2.24023.67383,4.04881,1.9707,4.04881,4.56153v.05371c0,3.23925-2.72656,5.15625-6.85645,5.15625h-8.39453Zm12.03857,4.99316c0-1.86133-1.48437-3.07617-4.18359-3.07617h-5.74951v6.50488h5.5874c2.56445,0,4.3457-1.16113,4.3457-3.374Zm-3.96777,5.31836h-5.96533v6.667h6.34326c2.86133,0,4.64258-1.26855,4.64258-3.374v-.05469c0-2.05081-1.72754-3.23831-5.02053-3.23831Z" fill="#fff"/>
          <path d="M162.89644,28.13884h2.07861v3.64355a5.97766,5.97766,0,0,1,5.69531-3.88769v2.24023h-.1621c-3.04981,0-5.53321,2.1875-5.53321,6.39844v5.56055h-2.07861Z" fill="#fff"/>
          <path d="M172.37105,38.04509V37.9904c0-2.94141,2.42969-4.50781,5.96533-4.50781a14.829,14.829,0,0,1,4.292.59375V33.59c0-2.50977-1.53858-3.80469-4.15674-3.80469a9.7184,9.7184,0,0,0-4.23779,1.02539l-.6211-1.70117a11.53321,11.53321,0,0,1,5.07471-1.16016,6.12087,6.12087,0,0,1,4.50781,1.53907,5.506,5.506,0,0,1,1.43067,4.07519v8.53028h-1.99756V39.98845a6.1186,6.1186,0,0,1-5.04785,2.40234C174.98972,42.39079,172.37105,40.90642,172.37105,38.04509ZM182.65523,36.965V35.6154a14.55627,14.55627,0,0,0-4.10254-.59375c-2.61865,0-4.07617,1.13281-4.07617,2.8877v.05371c0,1.75488,1.61963,2.78125,3.50927,2.78125C180.54976,40.74431,182.65523,39.1779,182.65523,36.965Z" fill="#fff"/>
          <path d="M188.86226,22.79313h2.37549v2.29493h-2.37549Zm.13476,5.34571h2.07862V42.09392H188.997Z" fill="#fff"/>
          <path d="M195.6064,28.13884h2.0786v2.42871a5.28454,5.28454,0,0,1,4.77783-2.72656c3.374,0,5.34424,2.26757,5.34424,5.58789v8.665H205.729V33.94157c0-2.59179-1.4038-4.21094-3.86035-4.21094a4.10553,4.10553,0,0,0-4.19145,4.01777q-.00378.17771.00786.35523v7.99024H195.6064Z" fill="#fff"/>
          <path d="M210.85886,40.31169l1.05273-1.48438a8.15823,8.15823,0,0,0,4.83154,1.78223c1.67383,0,2.88819-.86426,2.88819-2.21484V38.342c0-1.40429-1.64649-1.94336-3.48194-2.457-2.18652-.62109-4.61572-1.377-4.61572-3.9414v-.05274c0-2.40234,1.99756-3.99609,4.751-3.99609a9.53654,9.53654,0,0,1,5.02051,1.53906l-.94483,1.56543a7.88865,7.88865,0,0,0-4.12988-1.34961c-1.64649,0-2.69922.86426-2.69922,2.02441v.05469c0,1.32227,1.72754,1.835,3.58984,2.40235,2.15967.64746,4.481,1.48437,4.481,3.99414v.05468c0,2.64453-2.18653,4.1836-4.9668,4.1836A9.59836,9.59836,0,0,1,210.85886,40.31169Z" fill="#fff"/>
        </g>
      </g>
      <rect width="535" height="112.5" fill="none"/>
    </g>
  </g>
  <g id="Layer_3" data-name="Layer 3">
    <path d="M22.47123,39.28269v43.758H37.47165v-7.397a7.603,7.603,0,0,1,7.60254-7.60346H45.142A7.329,7.329,0,0,1,52.47123,75.369v7.67168h15V60.54006h2.641a4.85915,4.85915,0,0,1,4.8588,4.85951V83.04071h7.50022V39.74986A16.70926,16.70926,0,0,0,65.76188,23.04069H52.448V44.61713c0,6.11476,4.16693,8.41764,6.82949,8.44641h.694v-.30312H59.239C50.30635,52.7071,44.9715,44.63815,44.9715,36.83749V23.04069H38.71407A16.24233,16.24233,0,0,0,22.47123,39.28251Zm45-1.242v-.00043H67.474a7.49705,7.49705,0,0,1,7.497,7.49708v.00314h0a7.49977,7.49977,0,0,1-7.49977-7.49977v0Z" fill="url(#linear-gradient)"/>
  </g>
</svg>
