<svg xmlns="http://www.w3.org/2000/svg" xmlns:xlink="http://www.w3.org/1999/xlink" width="1012" height="212" viewBox="0 0 535 112.5">
  <defs>
    <linearGradient id="linear-gradient" x1="22.2285" y1="27.692" x2="76.81395" y2="82.27745" gradientUnits="userSpaceOnUse">
      <stop offset="0.17208" stop-color="#07c3f2"/>
      <stop offset="1" stop-color="#6b57ff"/>
    </linearGradient>
  </defs>
  <g id="Layer_1" data-name="Layer 1">
    <g>
      <g>
        <g>
          <path d="M100.84778,66.14852v-.09535c0-9.15295,6.63395-17.25713,16.51373-17.25713a17.22073,17.22073,0,0,1,12.27855,4.43277l-2.40016,2.8603a13.908,13.908,0,0,0-10.01933-3.81373c-7.29307,0-12.51485,6.24567-12.51485,13.68245v.09534c0,7.96048,5.03385,13.87176,13.03163,13.87176a15.37315,15.37315,0,0,0,9.50255-3.337V68.293H117.22057V64.909H130.816v13.2997a19.81143,19.81143,0,0,1-13.21955,5.10156C107.24683,83.31031,100.84778,75.68284,100.84778,66.14852Z"/>
          <path d="M136.23118,58.09132h3.62305v6.43636c1.78665-4.09976,5.31573-7.0554,9.92675-6.86471v3.956h-.28326c-5.31574,0-9.64349,3.86209-9.64349,11.29887v9.82036h-3.62305Z"/>
          <path d="M149.92331,75.5875v-.09534c0-5.1969,4.23379-7.96186,10.39794-7.96186a25.52854,25.52854,0,0,1,7.47961,1.04878V67.721c0-4.43277-2.68205-6.721-7.2447-6.721a16.76543,16.76543,0,0,0-7.387,1.81152l-1.08193-3.004a19.87291,19.87291,0,0,1,8.84481-2.04919c3.43512,0,6.06881.90507,7.85684,2.71659,1.64709,1.6692,2.49274,4.05278,2.49274,7.19911V82.73825h-3.48072V79.01986a10.613,10.613,0,0,1-8.79783,4.24208C154.48735,83.26194,149.92331,80.64069,149.92331,75.5875Zm17.92453-1.90686V71.29705a25.039,25.039,0,0,0-7.15074-1.04877c-4.564,0-7.10377,2.00221-7.10377,5.10017v.09534c0,3.09935,2.823,4.91087,6.11579,4.91087C164.17782,80.35466,167.84784,77.58971,167.84784,73.68064Z"/>
          <path d="M175.23764,70.48594V70.3906c0-8.05581,5.78554-12.823,11.61944-12.823a10.94121,10.94121,0,0,1,9.31462,5.24388V47.938h3.62305v34.8003H196.1717V77.7804c-1.97457,2.95564-4.84454,5.48154-9.31462,5.48154C181.02318,83.26194,175.23764,78.59012,175.23764,70.48594Zm21.07639-.047v-.09534c0-5.67361-4.28216-9.48735-8.79784-9.48735-4.705,0-8.56293,3.52771-8.56293,9.48735V70.439c0,5.81594,3.95191,9.53433,8.56293,9.53433C192.03187,79.97329,196.314,76.1112,196.314,70.439Z"/>
          <path d="M205.8677,47.938h3.623v34.8003h-3.623Z"/>
          <path d="M214.05479,70.48594V70.3906c0-7.10238,4.9385-12.823,11.66642-12.823,7.19773,0,11.33756,5.81594,11.33756,13.01367a9.73107,9.73107,0,0,1-.047,1.19248H217.72343c.51817,5.33922,4.23379,8.34185,8.56293,8.34185a10.00771,10.00771,0,0,0,7.66753-3.47934l2.25923,2.04919a12.492,12.492,0,0,1-10.02072,4.62484C219.51146,83.31031,214.05479,78.11341,214.05479,70.48594Zm19.33534-1.43014c-.37723-4.48114-2.917-8.39021-7.76288-8.39021-4.2338,0-7.43263,3.57606-7.90382,8.39021Z"/>
          <path d="M253.766,49.3681h3.717V82.73825h-3.717Z"/>
          <path d="M264.16389,58.09132h3.62305v4.29045a9.19006,9.19006,0,0,1,8.32664-4.81415c5.88089,0,9.31463,4.00442,9.31463,9.86734V82.73825h-3.62166V68.34141c0-4.57648-2.44715-7.43677-6.72792-7.43677-4.18682,0-7.29169,3.098-7.29169,7.7228V82.73825h-3.62305Z"/>
          <path d="M292.06493,76.20654V61.333h-3.38676V58.09132h3.38676V50.65454h3.623v7.43678h7.7159V61.333H295.688V75.72982c0,3.004,1.64709,4.09977,4.09286,4.09977a7.52462,7.52462,0,0,0,3.5277-.85809v3.14632a9.01008,9.01008,0,0,1-4.37474,1.04878C295.02886,83.1666,292.06493,81.21275,292.06493,76.20654Z"/>
          <path d="M305.24026,70.48594V70.3906c0-7.10238,4.93851-12.823,11.66643-12.823,7.19772,0,11.33756,5.81594,11.33756,13.01367a9.73107,9.73107,0,0,1-.047,1.19248H308.90891c.51817,5.33922,4.23379,8.34185,8.56293,8.34185a10.00771,10.00771,0,0,0,7.66753-3.47934l2.25922,2.04919a12.492,12.492,0,0,1-10.02071,4.62484C310.69694,83.31031,305.24026,78.11341,305.24026,70.48594ZM324.5756,69.0558c-.37722-4.48114-2.91695-8.39021-7.76287-8.39021-4.2338,0-7.43263,3.57606-7.90382,8.39021Z"/>
          <path d="M332.57615,47.938h3.623v34.8003h-3.623Z"/>
          <path d="M342.59825,47.938h3.623v34.8003h-3.623Z"/>
          <path d="M352.38406,48.65234h4.13983v4.05278h-4.13983Zm.2349,9.439h3.623V82.73825h-3.623Z"/>
          <path d="M359.72411,77.30368l2.68205-2.3366c2.02293,3.09935,4.09285,4.76716,7.528,4.76716,3.71562,0,6.44465-2.71659,6.44465-8.00883V49.3681h3.764V71.67843c0,3.90907-1.12892,6.86471-3.01091,8.77158a10.02541,10.02541,0,0,1-7.24471,2.76495A11.25616,11.25616,0,0,1,359.72411,77.30368Z"/>
          <path d="M398.35333,49.3681h12.32554c7.43263,0,12.32554,4.00442,12.32554,10.5831v.09535c0,7.19772-5.92787,10.91611-12.93767,10.91611H402.069V82.73825h-3.71563Zm11.85435,18.1622c5.45806,0,9.03274-2.95564,9.03274-7.34143v-.09534c0-4.76717-3.5277-7.24609-8.84343-7.24609h-8.328V67.5303Z"/>
          <path d="M427.14838,47.938h3.62305v34.8003h-3.62305Z"/>
          <path d="M436.46577,73.39461V58.09132h3.62166V72.48815c0,4.57648,2.44715,7.43678,6.72792,7.43678,4.13984,0,7.29169-3.098,7.29169-7.72281V58.09132h3.57606V82.73825H454.107V78.4478a9.24468,9.24468,0,0,1-8.32665,4.81414C439.89951,83.26194,436.46577,79.25753,436.46577,73.39461Z"/>
          <path d="M463.19091,87.02869l1.6457-2.86029a15.41158,15.41158,0,0,0,9.363,3.14632c5.36271,0,8.84482-3.004,8.84482-8.77158V75.63448c-2.11828,2.8603-5.08222,5.1969-9.55091,5.1969A11.3181,11.3181,0,0,1,462.062,69.29484V69.1995a11.485,11.485,0,0,1,20.93406-6.674V58.09132h3.623V78.4478c0,3.81373-1.12892,6.721-3.10488,8.72322-2.16388,2.19289-5.40969,3.29-9.26764,3.29A18.8927,18.8927,0,0,1,463.19091,87.02869Zm19.94747-17.78221v-.09534c0-5.05319-4.32914-8.34185-8.93878-8.34185a8.0943,8.0943,0,0,0-8.422,8.29487v.09534a8.28533,8.28533,0,0,0,8.422,8.39021C478.80924,77.58971,483.13838,74.20433,483.13838,69.24648Z"/>
          <path d="M492.45576,48.65234h4.13984v4.05278h-4.13984Zm.23491,9.439h3.623V82.73825h-3.623Z"/>
          <path d="M502.3839,58.09132h3.623v4.29045a9.19008,9.19008,0,0,1,8.32665-4.81415c5.88088,0,9.31462,4.00442,9.31462,9.86734V82.73825h-3.62166V68.34141c0-4.57648-2.44714-7.43677-6.72792-7.43677-4.18681,0-7.29169,3.098-7.29169,7.7228V82.73825h-3.623Z"/>
        </g>
        <g>
          <path d="M100.98971,39.01579l1.53857-1.32226c1.16064,1.7539,2.34814,2.69921,4.31885,2.69921,2.13232,0,3.69775-1.53906,3.69775-4.53515V23.19841h2.15967V35.83122A6.81858,6.81858,0,0,1,110.977,40.798a5.79535,5.79535,0,0,1-4.15723,1.56543A6.47,6.47,0,0,1,100.98971,39.01579Z"/>
          <path d="M116.59762,35.15642v-.05469c0-4.02149,2.83447-7.26074,6.69433-7.26074,4.12988,0,6.50537,3.29394,6.50537,7.36914a5.34183,5.34183,0,0,1-.02734.6748h-11.0669a4.874,4.874,0,0,0,4.9126,4.72461,5.77619,5.77619,0,0,0,4.3999-1.9707l1.2959,1.16015a7.20447,7.20447,0,0,1-5.74951,2.61817A6.9366,6.9366,0,0,1,116.59762,35.15642Zm11.09423-.81055c-.21582-2.53711-1.67382-4.75-4.4541-4.75-2.4292,0-4.26465,2.02441-4.53467,4.75Z"/>
          <path d="M133.69918,38.3947V29.9738h-1.94336v-1.835h1.94336V23.9279h2.07812v4.21094h4.42725v1.835H135.7773v8.15137a2.06523,2.06523,0,0,0,2.34864,2.32226,4.37588,4.37588,0,0,0,2.02441-.48633v1.78125a5.22779,5.22779,0,0,1-2.51025.59375C135.39986,42.3361,133.69918,41.22966,133.69918,38.3947Z"/>
          <path d="M143.65963,23.19841h8.04394a6.93961,6.93961,0,0,1,4.93946,1.67383,4.19444,4.19444,0,0,1,1.21484,3.02246v.05468a4.56223,4.56223,0,0,1-2.99609,4.373c2.24023.67383,4.04882,1.9707,4.04882,4.56153v.05371c0,3.23925-2.72656,5.15625-6.85644,5.15625h-8.39453Zm12.03857,4.99316c0-1.86133-1.48437-3.07617-4.18359-3.07617H145.7651v6.50488h5.5874c2.56445,0,4.3457-1.16113,4.3457-3.374Zm-3.96777,5.31836H145.7651v6.667h6.34326c2.86133,0,4.64258-1.26855,4.64258-3.374v-.05469C156.75094,34.69743,155.0234,33.50993,151.73043,33.50993Z"/>
          <path d="M162.89644,28.13884h2.07862v3.64355a5.97766,5.97766,0,0,1,5.69531-3.88769v2.24023h-.16211c-3.0498,0-5.5332,2.1875-5.5332,6.39844v5.56055h-2.07862Z"/>
          <path d="M172.37105,38.04509V37.9904c0-2.94141,2.42969-4.50781,5.96533-4.50781a14.829,14.829,0,0,1,4.292.59375V33.59c0-2.50977-1.53858-3.80469-4.15674-3.80469a9.71849,9.71849,0,0,0-4.23779,1.02539l-.6211-1.70117a11.53313,11.53313,0,0,1,5.07471-1.16016,6.12089,6.12089,0,0,1,4.50781,1.53907,5.50594,5.50594,0,0,1,1.43067,4.07519v8.53028h-1.99756V39.98845a6.11859,6.11859,0,0,1-5.04785,2.40234C174.98971,42.39079,172.37105,40.90642,172.37105,38.04509ZM182.65523,36.965V35.6154a14.55647,14.55647,0,0,0-4.10254-.59375c-2.61865,0-4.07617,1.13281-4.07617,2.8877v.05371c0,1.75488,1.61963,2.78125,3.50928,2.78125C180.54976,40.74431,182.65523,39.1779,182.65523,36.965Z"/>
          <path d="M188.86226,22.79313h2.37549v2.29493h-2.37549Zm.13477,5.34571h2.07861V42.09392H188.997Z"/>
          <path d="M195.6064,28.13884H197.685v2.42871a5.28453,5.28453,0,0,1,4.77783-2.72656c3.374,0,5.34424,2.26757,5.34424,5.58789v8.665H205.729V33.94157c0-2.59179-1.40381-4.21094-3.86035-4.21094a4.10553,4.10553,0,0,0-4.18359,4.373v7.99024H195.6064Z"/>
          <path d="M210.85885,40.31169l1.05273-1.48438a8.15824,8.15824,0,0,0,4.83154,1.78223c1.67383,0,2.88819-.86426,2.88819-2.21484V38.342c0-1.40429-1.64649-1.94336-3.48194-2.457-2.18652-.62109-4.61572-1.37695-4.61572-3.9414v-.05274c0-2.40234,1.99756-3.99609,4.751-3.99609a9.5365,9.5365,0,0,1,5.0205,1.53906l-.94482,1.56543a7.8887,7.8887,0,0,0-4.12988-1.34961c-1.64649,0-2.69922.86426-2.69922,2.02441v.05469c0,1.32227,1.72754,1.835,3.58984,2.40235,2.15967.64746,4.481,1.48437,4.481,3.99414v.05468c0,2.64453-2.18652,4.1836-4.9668,4.1836A9.59835,9.59835,0,0,1,210.85885,40.31169Z"/>
        </g>
      </g>
      <rect width="535" height="112.5" fill="none"/>
    </g>
  </g>
  <g id="Layer_3" data-name="Layer 3">
    <path d="M22.47123,39.28269v43.758H37.47165v-7.397a7.603,7.603,0,0,1,7.60262-7.60346h.0677a7.329,7.329,0,0,1,7.32926,7.32925v7.67117h15V60.54006h2.641a4.85916,4.85916,0,0,1,4.8588,4.85965v17.641h7.50022V39.74986a16.70927,16.70927,0,0,0-16.7096-16.70917H52.448V44.61713c0,6.11476,4.16693,8.41764,6.82949,8.44641h.694v-.30312h-.7325c-8.93264-.05332-14.2675-8.12227-14.2675-15.92293V23.04069H38.71407A16.24233,16.24233,0,0,0,22.47123,39.28269Zm45-1.242v-.00043H67.474A7.49706,7.49706,0,0,1,74.971,45.53734v.00314h0A7.49977,7.49977,0,0,1,67.47123,38.0407Z" fill="url(#linear-gradient)"/>
  </g>
</svg>
