<svg fill="none" height="96" viewBox="0 0 639 74" width="830" xmlns="http://www.w3.org/2000/svg" xmlns:xlink="http://www.w3.org/1999/xlink"><linearGradient id="a" gradientUnits="userSpaceOnUse" x1="11.5" x2="37.5" y1="11.5" y2="38.5"><stop offset="0" stop-color="#3bea62"/><stop offset="1" stop-color="#087cfa"/></linearGradient><path clip-rule="evenodd" d="m73.46 38.97h-5.46v-.01-29.96h5.46zm17.15-22.44c1.57 0 2.95.35 4.13 1.03l.01.03c1.18.68 2.1 1.67 2.76 2.97.65 1.29.98 2.84.98 4.64v13.78h-5.03v-13.01c0-1.06-.18-1.96-.54-2.7s-.87-1.31-1.54-1.7-1.47-.59-2.4-.59c-1 0-1.88.22-2.65.67s-1.37 1.07-1.79 1.88-.63 1.72-.63 2.75v12.69h-5.05v-21.92h4.9v3.21c.63-1.06 1.44-1.92 2.45-2.55 1.25-.79 2.72-1.18 4.4-1.18zm14.27-4.83h4.7v5.34h5.82l-.02 4.39h-5.82l.02 11.07c0 .6.2 1.1.59 1.49s.89.59 1.49.59h3.72v4.39h-4.73c-1.17 0-2.23-.25-3.16-.75s-1.66-1.2-2.18-2.08c-.52-.89-.78-1.89-.78-3l-.02-11.71h-3.85l.02-4.39h2.4c.55 0 .98-.17 1.31-.5s.49-.76.49-1.29zm23.23 4.83c2.16 0 4.08.49 5.76 1.46l-.02-.01c1.69.98 3 2.33 3.93 4.06s1.4 3.71 1.4 5.94v1.22h-17.29c.1 1.01.35 1.94.78 2.77.54 1.05 1.28 1.86 2.23 2.45s2.02.88 3.22.88c1.06 0 2.01-.21 2.85-.62s1.54-.99 2.1-1.73h5.5c-.52 1.36-1.27 2.52-2.25 3.49s-2.17 1.72-3.57 2.25c-1.39.53-2.94.79-4.64.79-2.15 0-4.09-.5-5.81-1.48-1.72-.99-3.08-2.35-4.07-4.11s-1.49-3.78-1.49-5.93.5-4.1 1.5-5.84 2.37-3.11 4.1-4.1c1.74-.99 3.61-1.49 5.77-1.49zm-6.108 9.28h12.018c-.12-.67-.31-1.3-.59-1.89-.5-1.06-1.21-1.89-2.13-2.49s-1.98-.9-3.18-.9-2.27.29-3.22.87-1.69 1.38-2.23 2.4c-.328.6171-.538 1.2937-.668 2.01zm25.908 13.16h-5.05v-.01-29.96h5.05zm9.93 0h-5.05v-.01-29.96h5.05zm15.76-7.43c.46-.81.69-1.74.69-2.8l-.01-.01v-19.73h5.33v20.21c0 1.94-.45 3.64-1.34 5.11-.9 1.46-2.15 2.61-3.75 3.42-1.61.81-3.47 1.22-5.58 1.22h-6.33v-4.86h6.23c1.07 0 2.02-.23 2.84-.67s1.46-1.08 1.92-1.89zm-11.17-21.68h5.76v5.01h-5.76zm5.33 6.57v13.95h-5.14v-13.95zm43.24-7.42c2.05 0 3.85.37 5.41 1.13s2.76 1.83 3.61 3.21 1.27 2.96 1.27 4.79-.43 3.44-1.29 4.83-2.08 2.47-3.66 3.24-3.41 1.16-5.51 1.16h-7.21v11.6h-5.33v-29.96zm2.38 13.29c.77-.39 1.36-.93 1.78-1.64.42-.7.63-1.55.63-2.49s-.21-1.76-.63-2.46c-.43-.7-1.02-1.24-1.78-1.62-.77-.38-1.67-.57-2.71-.57h-7.06v9.36h7.06c1.04 0 1.95-.19 2.71-.58zm15.8 16.67h-5.05v-.01-29.96h5.05zm13.76-22.43c1.79 0 3.34.31 4.67.94h.02c1.32.63 2.36 1.54 3.09 2.74s1.1 2.61 1.1 4.22v14.53h-4.99v-3.13c-.59 1.11-1.38 1.98-2.39 2.6-1.14.69-2.5 1.04-4.08 1.04-1.41 0-2.68-.27-3.79-.81s-1.99-1.3-2.62-2.26-.95-2.06-.95-3.26.31-2.3.92-3.3c.62-1 1.47-1.82 2.55-2.47s2.31-1.05 3.68-1.19l5.41-.62c.38-.04.69-.2.92-.49.15-.18.24-.43.3-.72v-.43c0-.67-.16-1.25-.47-1.74-.32-.49-.77-.87-1.35-1.13-.59-.27-1.29-.4-2.08-.4s-1.48.12-2.08.36-1.07.56-1.42.97-.56.87-.63 1.38h-4.99c.15-1.3.63-2.47 1.42-3.5s1.86-1.85 3.19-2.44 2.78-.89 4.57-.89zm3.23 16.75c.4-.73.6-1.56.6-2.52v-2.07l-5.42.63c-.63.08-1.19.26-1.67.56s-.86.68-1.13 1.14-.41.97-.41 1.55.16 1.1.47 1.56c.32.46.76.81 1.33 1.05s1.23.36 1.97.36c.96 0 1.81-.2 2.55-.59s1.31-.95 1.71-1.67zm12.14-21.59h4.7v5.34h5.82l-.02 4.39h-5.82l.02 11.07c0 .6.2 1.1.59 1.49s.89.59 1.49.59h3.72v4.39h-4.73c-1.17 0-2.23-.25-3.16-.75s-1.66-1.2-2.18-2.08c-.52-.89-.78-1.89-.78-3l-.02-11.71h-3.85l.02-4.39h2.4c.55 0 .98-.17 1.31-.5s.49-.76.49-1.29zm17.45-.05c.51-.84 1.23-1.49 2.15-1.95.92-.47 1.98-.7 3.18-.7h4.84v4.05h-3.9c-.58 0-1.06.19-1.43.55s-.56.84-.56 1.42v2.03h5.74v4.39h-5.74v17.53h-5.05v-17.53h-3.87v-4.39h3.87v-2.5c0-1.1.26-2.07.77-2.9zm22.68 4.88c2.15 0 4.11.5 5.86 1.5s3.13 2.37 4.14 4.12c1.01 1.74 1.51 3.7 1.51 5.85s-.5 4.1-1.51 5.85c-1 1.75-2.39 3.12-4.14 4.12-1.76 1-3.74 1.5-5.89 1.5s-4.11-.5-5.86-1.5-3.13-2.37-4.14-4.12c-1.01-1.74-1.51-3.7-1.51-5.85s.5-4.1 1.5-5.85 2.37-3.12 4.14-4.12 3.75-1.5 5.9-1.5zm3.25 17.55c.95-.58 1.69-1.4 2.21-2.46s.78-2.25.78-3.62-.27-2.58-.79-3.63-1.26-1.87-2.21-2.46-2.04-.89-3.26-.89-2.32.3-3.26.88-1.68 1.4-2.2 2.46-.78 2.28-.78 3.64.26 2.56.78 3.62c.52 1.05 1.25 1.88 2.2 2.46.94.59 2.04.88 3.26.88s2.31-.29 3.27-.88zm16.91-13.71c.57-.93 1.27-1.69 2.1-2.26l-.01.01c1.17-.81 2.53-1.21 4.09-1.21h.81v5.09h-1.41c-1.12 0-2.11.21-2.94.62-.84.42-1.48 1.01-1.93 1.78s-.67 1.68-.67 2.74v11.83h-5.05v-21.92h5.01zm35.07-3.83c1.56 0 2.92.35 4.1 1.06v.03c1.18.71 2.08 1.71 2.72 3.01.63 1.3.95 2.81.95 4.54v13.83h-5.05v-13.23c0-.99-.16-1.84-.5-2.55-.33-.72-.81-1.27-1.44-1.65-.63-.39-1.39-.58-2.27-.58-.94 0-1.77.21-2.49.64s-1.28 1.04-1.67 1.84-.59 1.73-.59 2.8v12.71h-4.94v-13.23c0-.99-.17-1.84-.5-2.55-.34-.72-.82-1.26-1.46-1.65s-1.4-.58-2.28-.58c-.95 0-1.79.21-2.5.64-.72.43-1.26 1.04-1.65 1.84s-.58 1.73-.58 2.8v12.71h-5.05v-21.92h4.9v3.36c.6-1.14 1.38-2.05 2.36-2.71 1.16-.78 2.57-1.17 4.12-1.17s2.9.35 4.03 1.06 2.01 1.71 2.62 3.01l.06.15c.67-1.27 1.56-2.28 2.7-3.01 1.26-.8 2.73-1.2 4.41-1.2zm48.43 11h-7.19v-.01-4.28h12.41v2.31c0 2.63-.62 5-1.88 7.11s-2.99 3.78-5.19 4.99-4.51 1.82-7.37 1.82-5.43-.68-7.74-2.02-4.12-3.2-5.44-5.56-1.98-5-1.98-7.91.66-5.55 1.98-7.91 3.14-4.21 5.44-5.56c2.31-1.35 4.89-2.02 7.74-2.02 2.27 0 4.36.4 6.29 1.21 1.93.8 3.56 1.93 4.9 3.39 1.34 1.45 2.29 3.14 2.85 5.07h-5.71c-.49-1-1.14-1.86-1.95-2.59-.82-.73-1.76-1.28-2.84-1.67s-2.24-.58-3.5-.58c-1.84 0-3.51.46-5 1.38s-2.66 2.19-3.5 3.81-1.26 3.44-1.26 5.47.42 3.85 1.26 5.47 2.01 2.89 3.5 3.81 3.16 1.38 5 1.38c1.71 0 3.25-.32 4.63-.96 1.38-.65 2.48-1.54 3.29-2.69.73-1.03 1.14-2.19 1.26-3.46zm14.36-7.17c.57-.93 1.27-1.69 2.1-2.26l-.01.01c1.17-.81 2.53-1.21 4.09-1.21h.81v5.09h-1.41c-1.12 0-2.11.21-2.94.62-.84.42-1.48 1.01-1.93 1.78s-.67 1.68-.67 2.74v11.83h-5.05v-21.92h5.01zm18.62-3.83c1.79 0 3.34.31 4.67.94h.02c1.32.63 2.36 1.54 3.09 2.74s1.1 2.61 1.1 4.22v14.53h-4.99v-3.13c-.59 1.11-1.38 1.98-2.39 2.6-1.14.69-2.5 1.04-4.08 1.04-1.41 0-2.68-.27-3.79-.81s-1.99-1.3-2.62-2.26-.95-2.06-.95-3.26.31-2.3.92-3.3c.62-1 1.47-1.82 2.55-2.47s2.31-1.05 3.68-1.19l5.41-.62c.38-.04.69-.2.92-.49.15-.18.24-.43.3-.72v-.43c0-.67-.16-1.25-.47-1.74-.32-.49-.77-.87-1.35-1.13-.59-.27-1.29-.4-2.08-.4s-1.48.12-2.08.36-1.07.56-1.42.97-.56.87-.63 1.38h-4.99c.15-1.3.63-2.47 1.42-3.5s1.86-1.85 3.19-2.44 2.78-.89 4.57-.89zm3.23 16.75c.4-.73.6-1.56.6-2.52v-2.07l-5.42.63c-.63.08-1.19.26-1.67.56s-.86.68-1.13 1.14-.41.97-.41 1.55.16 1.1.47 1.56c.32.46.76.81 1.33 1.05s1.23.36 1.97.36c.96 0 1.81-.2 2.55-.59s1.31-.95 1.71-1.67zm24.08-15.55c1.1.64 2 1.51 2.71 2.59v-.01-11.32h5.05v29.99h-5.05v-3.28c-.71 1.07-1.61 1.94-2.71 2.59-1.36.8-2.95 1.2-4.76 1.2-1.94 0-3.68-.49-5.22-1.47s-2.75-2.34-3.62-4.09-1.31-3.72-1.31-5.92.44-4.17 1.31-5.92 2.08-3.11 3.61-4.09 3.28-1.47 5.23-1.47c1.81 0 3.4.4 4.76 1.2zm-.28 16.36c.94-.59 1.67-1.41 2.2-2.46s.79-2.26.79-3.63-.26-2.58-.79-3.63c-.52-1.05-1.26-1.87-2.2-2.46s-2.05-.89-3.25-.89-2.27.3-3.21.89-1.67 1.41-2.19 2.46-.78 2.26-.78 3.63.26 2.58.78 3.64c.52 1.05 1.25 1.88 2.19 2.46.94.59 1.99.88 3.21.88s2.31-.3 3.25-.89zm18 4.87h-5.05v-.01-29.96h5.05zm15.06-22.44c2.16 0 4.08.49 5.76 1.46l-.02-.01c1.69.98 3 2.33 3.93 4.06s1.4 3.71 1.4 5.94v1.22h-17.29c.1 1.01.35 1.94.78 2.77.54 1.05 1.28 1.86 2.23 2.45s2.02.88 3.22.88c1.06 0 2.01-.21 2.85-.62s1.54-.99 2.1-1.73h5.5c-.52 1.36-1.27 2.52-2.25 3.49s-2.17 1.72-3.57 2.25c-1.39.53-2.94.79-4.64.79-2.15 0-4.09-.5-5.81-1.48-1.72-.99-3.08-2.35-4.07-4.11s-1.49-3.78-1.49-5.93.5-4.1 1.5-5.84 2.37-3.11 4.1-4.1c1.74-.99 3.61-1.49 5.77-1.49zm-6.118 9.28h12.018c-.12-.67-.31-1.3-.59-1.89-.5-1.06-1.21-1.89-2.13-2.49s-1.98-.9-3.18-.9-2.27.29-3.22.87-1.69 1.38-2.23 2.4c-.328.6171-.538 1.2937-.668 2.01zm46.828-16.8c2.05 0 3.85.37 5.41 1.13s2.76 1.83 3.61 3.21 1.27 2.96 1.27 4.79-.43 3.44-1.29 4.83-2.08 2.47-3.66 3.24-3.41 1.16-5.51 1.16h-7.21v11.6h-5.33v-29.96zm2.38 13.29c.77-.39 1.36-.93 1.78-1.64.42-.7.63-1.55.63-2.49s-.21-1.76-.63-2.46c-.43-.7-1.02-1.24-1.78-1.62-.77-.38-1.67-.57-2.71-.57h-7.06v9.36h7.06c1.04 0 1.95-.19 2.71-.58zm15.8 16.67h-5.05v-.01-29.96h5.05zm18.64-6.48c.42-.81.63-1.72.63-2.75h-.01v-12.69h5.05v21.9h-4.9v-3.23c-.63 1.06-1.44 1.93-2.45 2.56-1.25.79-2.72 1.18-4.4 1.18-1.57 0-2.95-.35-4.13-1.03s-2.11-1.68-2.76-2.97-.98-2.84-.98-4.64v-13.78h5.03v13.01c0 1.06.18 1.96.54 2.7s.87 1.31 1.53 1.7c.67.39 1.47.59 2.41.59.99 0 1.88-.22 2.65-.67s1.37-1.07 1.79-1.88zm26.67-12.2948c-.678-1.0031-1.535-1.8082-2.56-2.4252-1.37-.82-2.95-1.23-4.75-1.23-1.93 0-3.64.45-5.13 1.35s-2.65 2.15-3.47 3.76c-.82 1.6-1.23 3.43-1.23 5.47s.41 3.86 1.23 5.46 1.98 2.85 3.47 3.76 3.2 1.36 5.13 1.36c1.8 0 3.38-.41 4.75-1.23.97-.58 1.78-1.35 2.44-2.27l-.04 1.54v1.28c0 1.03-.25 1.93-.76 2.71s-1.21 1.38-2.11 1.81-1.92.64-3.06.64c-.88 0-1.7-.11-2.45-.32s-1.38-.51-1.88-.89-.84-.8-1-1.27h-5.01c.29 1.3.91 2.45 1.88 3.46s2.2 1.79 3.68 2.35 3.1.85 4.86.85c2.11 0 3.99-.39 5.63-1.18 1.64-.78 2.92-1.88 3.85-3.29s1.39-3.03 1.39-4.86l.06-19.95h-4.92zm-6.03 13.1748c1.15 0 2.18-.26 3.08-.78s1.6-1.25 2.09-2.21c.49-.95.74-2.05.74-3.27s-.24-2.31-.74-3.27-1.19-1.7-2.09-2.23-1.91-.79-3.08-.79-2.2.26-3.1.79-1.6 1.27-2.08 2.23c-.49.95-.73 2.05-.73 3.27s.24 2.31.73 3.27c.49.95 1.18 1.69 2.08 2.21s1.95.78 3.1.78zm20.9 5.6h-5.05v-21.92h5.05zm.35-24.23h-5.76v-5.01h5.76zm20.43 2.83c1.18.68 2.1 1.67 2.76 2.97l.01.03c.65 1.29.98 2.84.98 4.64v13.78h-5.03v-13.01c0-1.06-.18-1.96-.54-2.7s-.87-1.31-1.54-1.7-1.47-.59-2.4-.59c-1 0-1.88.22-2.65.67s-1.37 1.07-1.79 1.88-.63 1.72-.63 2.75v12.69h-5.05v-21.92h4.9v3.21c.63-1.06 1.44-1.92 2.45-2.55 1.25-.79 2.72-1.18 4.4-1.18 1.57 0 2.95.35 4.13 1.03zm-560.7971 41.9457c.869 0 1.6581.2397 2.3573.6992.6992.4694 1.2485 1.1087 1.6481 1.9178.3995.8091.5993 1.728.5993 2.7468 0 1.0189-.1998 1.9378-.5993 2.7469-.3996.819-.9489 1.4583-1.6481 1.9178-.6992.4694-1.4883.6992-2.3673.6992-.8191 0-1.5383-.1798-2.1476-.5394-.4794-.2697-.839-.6692-1.1486-1.1287v1.4284h-2.9167v-14.004h2.9266v5.1841c.3097-.4495.6693-.8491 1.1487-1.1287.6093-.3596 1.3285-.5394 2.1476-.5394zm.4494 7.7811c.3696-.2298.6593-.5594.8691-.9789.2097-.4195.3096-.889.3096-1.4384 0-.5493-.0999-1.0288-.3096-1.4483-.2098-.4195-.4995-.7491-.8691-.9789-.3695-.2297-.789-.3496-1.2785-.3496-.4894 0-.9189.1199-1.2885.3496-.3696.2298-.6593.5594-.869.9789-.2098.4195-.3097.889-.3097 1.4383 0 .5494.0999 1.0289.3097 1.4484.2097.4195.4994.7491.869.9789.3696.2297.8091.3496 1.2885.3496.4795 0 .909-.1199 1.2785-.3496zm7.1518-7.5414 2.3573 6.3627h.01l2.1675-6.3627h2.9367l-4.2551 10.8675c-.2997.7792-.7392 1.3984-1.3085 1.8679-.5694.4695-1.2686.6992-2.0876.6992h-1.828v-2.587h1.6382c.2297 0 .4195-.05.5693-.1499.1498-.0998.2797-.2497.3896-.4594l.2996-.6093-3.9055-9.629zm16.5211 6.4326c.1698-.3096.2497-.6592.2497-1.0488v-9.1395h3.0961v9.3593c0 .879-.199 1.6681-.609 2.3773-.409.7091-.969 1.2585-1.678 1.6581-.7092.3995-1.5183.5993-2.4073.5993h-2.3672v-2.8468h1.9577c.3996 0 .7492-.0799 1.0488-.2497.3097-.1698.5394-.3995.7092-.7092zm15.2428-1.8978h-6.493v.01 3.0065h7.372v2.697h-10.388v-14.004h10.188v2.7069h-7.172v2.9666h6.493zm6.153-5.5137h-4.146-.01v-2.7768h11.377v2.7768h-4.125v11.2172h-3.096zm17.18 3.8956c.29.0799.559.1798.809.3096h.01c.569.3097 1.019.7292 1.338 1.2785.32.5494.48 1.1687.48 1.8579 0 .7492-.2 1.4184-.609 2.0077-.41.5893-.979 1.0488-1.718 1.3784-.74.3296-1.579.4995-2.517.4995h-6.343v-14.004h6.223c.889 0 1.688.1598 2.387.4695.699.3096 1.238.7491 1.628 1.3085.39.5593.579 1.1986.579 1.9078 0 .6193-.149 1.1686-.439 1.6481-.29.4794-.699.859-1.209 1.1187-.179.0944-.385.1531-.584.2098zm-2.797-4.3251h-2.747v.02 3.4261h2.747c.38 0 .719-.0799 1.009-.2198.3-.1398.519-.3396.689-.6093s.25-.5893.25-.9289-.09-.6393-.25-.889c-.17-.2597-.399-.4495-.689-.5893-.29-.1399-.629-.2098-1.009-.2098zm1.239 9.0896c.319-.1498.569-.3496.749-.6193v.02c.18-.2697.27-.5694.27-.9289 0-.3596-.09-.6793-.27-.9589-.18-.2797-.44-.4995-.759-.6493-.33-.1498-.699-.2297-1.109-.2297h-2.867v3.5858h2.867c.42 0 .799-.0699 1.119-.2197zm16.541-4.6647c-.43.6693-1.029 1.1987-1.808 1.5682h-.01c-.14.07-.3.1299-.46.1898l3.197 5.4738h-3.536l-2.837-5.1042h-2.018v5.1042h-3.096v-14.004h6.133c1.009 0 1.898.1798 2.667.5494s1.358.889 1.778 1.5582c.419.6692.629 1.4284.629 2.3173 0 .889-.21 1.6781-.639 2.3473zm-3.556-.6093c.319-.1598.569-.3895.739-.6792v.01c.17-.2897.26-.6293.26-1.0288s-.09-.7392-.26-1.0288c-.17-.2897-.42-.5094-.739-.6693-.32-.1498-.699-.2297-1.129-.2297h-2.787v3.8656h2.787c.43 0 .809-.0799 1.129-.2398zm5.494 7.8411 5.004-14.004h.01 3.356l5.104 14.004h-3.086l-1.059-3.0865h-5.194l-.989 3.0865zm6.452-10.3781-1.608 4.9443h3.706l-1.718-4.9443-.19-.899zm11.427 10.3781h-3.196v-14.004h3.196zm5.434-14.004 6.013 9.4692h.01v-9.4692h2.827v14.004h-3.047l-5.993-9.4692v9.4692h-2.827v-14.004zm19.627 6.4326c.55.3996.979.889 1.279 1.4684v-.02c.31.5893.459 1.2286.459 1.9178 0 .849-.229 1.6081-.679 2.2774-.449.6692-1.079 1.1986-1.878 1.5782-.809.3795-1.738.5693-2.767.5693-1.028 0-1.947-.1898-2.746-.5594-.8-.3695-1.429-.8989-1.888-1.5582-.46-.6592-.699-1.4383-.709-2.3073h3.096c0 .3596.1.6792.29.9589.189.2797.459.4894.809.6392.349.1499.749.2298 1.178.2298.43 0 .799-.0699 1.119-.1998.32-.1298.559-.3196.739-.5693.18-.2498.27-.5294.27-.8391 0-.3895-.12-.7092-.36-.9689-.239-.2597-.569-.4395-.979-.5393l-2.517-.5194c-.659-.1399-1.238-.3896-1.738-.7492-.499-.3596-.889-.8191-1.158-1.3584-.27-.5494-.41-1.1587-.41-1.8279 0-.8391.22-1.5782.639-2.2275.43-.6492 1.019-1.1587 1.778-1.5282.76-.3696 1.619-.5494 2.597-.5494.979 0 1.858.1798 2.617.5294.76.3496 1.359.839 1.788 1.4683.43.6193.66 1.3485.68 2.1575h-3.097c0-.2996-.09-.5693-.25-.809-.169-.2398-.399-.4196-.689-.5494-.289-.1398-.639-.1998-1.019-.1998-.379 0-.719.0699-1.008.1898-.29.1199-.52.2997-.68.5194-.159.2297-.239.4894-.239.7891 0 .3396.109.6093.329.839.22.2298.52.3796.889.4695l2.377.4894c.71.1299 1.329.3996 1.878.7891z" fill="#000" fill-rule="evenodd"/><path d="m0 12.9925v35.008h12v-5.92c0-3.36 2.64-6.0805 6-6.0805 3.24 0 6 2.6245 6 5.8645v6.136h12v-18h2.112c2.144 0 3.888 1.8555 3.888 3.9995v14.0005h6v-35.0005c0-7.384-5.616-13-13-13h-11v17.0005c0 4.888 2.872 6.976 5 7-7.144-.04-11-6.712-11-12.952v-11.04801492h-5.008c-7.176 0-12.992 5.81599492-12.992 12.99201492zm36-.992c3.312 0 6 2.688 6 6-3.312 0-6-2.688-6-6z" fill="url(#a)"/></svg>
